<svg width="20" height="20" viewBox="0 0 20 20" fill="none" xmlns="http://www.w3.org/2000/svg">
<g id="vuesax/outline/close-circle">
<g id="close-circle">
<path id="Vector" d="M10 18.9587C5.05835 18.9587 1.04169 14.942 1.04169 10.0003C1.04169 5.05866 5.05835 1.04199 10 1.04199C14.9417 1.04199 18.9584 5.05866 18.9584 10.0003C18.9584 14.942 14.9417 18.9587 10 18.9587ZM10 2.29199C5.75002 2.29199 2.29169 5.75033 2.29169 10.0003C2.29169 14.2503 5.75002 17.7087 10 17.7087C14.25 17.7087 17.7084 14.2503 17.7084 10.0003C17.7084 5.75033 14.25 2.29199 10 2.29199Z" fill="currentColor" style="fill:white;fill-opacity:1;"/>
<path id="Vector_2" d="M7.64165 12.9831C7.48332 12.9831 7.32499 12.9248 7.19999 12.7998C6.95832 12.5581 6.95832 12.1581 7.19999 11.9165L11.9167 7.1998C12.1583 6.95814 12.5583 6.95814 12.8 7.1998C13.0417 7.44147 13.0417 7.84147 12.8 8.08314L8.08332 12.7998C7.96665 12.9248 7.79999 12.9831 7.64165 12.9831Z" fill="currentColor" style="fill:white;fill-opacity:1;"/>
<path id="Vector_3" d="M12.3583 12.9831C12.2 12.9831 12.0417 12.9248 11.9167 12.7998L7.19999 8.08314C6.95832 7.84147 6.95832 7.44147 7.19999 7.1998C7.44165 6.95814 7.84165 6.95814 8.08332 7.1998L12.8 11.9165C13.0417 12.1581 13.0417 12.5581 12.8 12.7998C12.675 12.9248 12.5167 12.9831 12.3583 12.9831Z" fill="currentColor" style="fill:white;fill-opacity:1;"/>
</g>
</g>
</svg>
