<svg width="20" height="20" viewBox="0 0 20 20" fill="none" xmlns="http://www.w3.org/2000/svg">
<path d="M10 1.04165C14.9417 1.04165 18.9584 5.05831 18.9584 9.99998C18.9584 14.9416 14.9417 18.9583 10 18.9583C5.05837 18.9583 1.04171 14.9416 1.04171 9.99998C1.04171 5.05831 5.05837 1.04165 10 1.04165ZM10 17.7083C14.25 17.7083 17.7084 14.25 17.7084 9.99998C17.7084 5.74998 14.25 2.29165 10 2.29165C5.75004 2.29165 2.29171 5.74998 2.29171 9.99998C2.29171 14.25 5.75004 17.7083 10 17.7083Z" fill="currentColor" style="fill:white;fill-opacity:1;"/>
<path d="M10 8.54165C10.3417 8.54165 10.625 8.82498 10.625 9.16665V13.3333C10.625 13.675 10.3417 13.9583 10 13.9583C9.65833 13.9583 9.375 13.675 9.375 13.3333V9.16665C9.375 8.82498 9.65833 8.54165 10 8.54165Z" fill="currentColor" style="fill:white;fill-opacity:1;"/>
<path d="M10 5.83335C10.1084 5.83335 10.2167 5.85835 10.3167 5.90002C10.4167 5.94168 10.5084 6.00002 10.5917 6.07502C10.6667 6.15835 10.725 6.24168 10.7667 6.35002C10.8084 6.45002 10.8334 6.55835 10.8334 6.66668C10.8334 6.77502 10.8084 6.88335 10.7667 6.98335C10.725 7.08335 10.6667 7.17502 10.5917 7.25835C10.5084 7.33335 10.4167 7.39168 10.3167 7.43335C10.1167 7.51668 9.88337 7.51668 9.68337 7.43335C9.58337 7.39168 9.49171 7.33335 9.40837 7.25835C9.33337 7.17502 9.27504 7.08335 9.23337 6.98335C9.19171 6.88335 9.16671 6.77502 9.16671 6.66668C9.16671 6.55835 9.19171 6.45002 9.23337 6.35002C9.27504 6.24168 9.33337 6.15835 9.40837 6.07502C9.49171 6.00002 9.58337 5.94168 9.68337 5.90002C9.78337 5.85835 9.89171 5.83335 10 5.83335Z" fill="currentColor" style="fill:white;fill-opacity:1;"/>
</svg>
