<svg width="20" height="20" viewBox="0 0 20 20" fill="none" xmlns="http://www.w3.org/2000/svg">
<g id="vuesax/outline/tick-circle">
<g id="tick-circle">
<path id="Vector" d="M10 18.9587C5.05833 18.9587 1.04166 14.942 1.04166 10.0003C1.04166 5.05866 5.05833 1.04199 10 1.04199C14.9417 1.04199 18.9583 5.05866 18.9583 10.0003C18.9583 14.942 14.9417 18.9587 10 18.9587ZM10 2.29199C5.75 2.29199 2.29166 5.75033 2.29166 10.0003C2.29166 14.2503 5.75 17.7087 10 17.7087C14.25 17.7087 17.7083 14.2503 17.7083 10.0003C17.7083 5.75033 14.25 2.29199 10 2.29199Z" fill="currentColor" style="fill:white;fill-opacity:1;"/>
<path id="Vector_2" d="M8.81667 12.9837C8.65 12.9837 8.49167 12.917 8.375 12.8003L6.01667 10.442C5.775 10.2003 5.775 9.80033 6.01667 9.55866C6.25834 9.31699 6.65834 9.31699 6.9 9.55866L8.81667 11.4753L13.1 7.19199C13.3417 6.95033 13.7417 6.95033 13.9833 7.19199C14.225 7.43366 14.225 7.83366 13.9833 8.07533L9.25834 12.8003C9.14167 12.917 8.98334 12.9837 8.81667 12.9837Z" fill="currentColor" style="fill:white;fill-opacity:1;"/>
</g>
</g>
</svg>
